<svg width="51" height="59" viewBox="0 0 51 59" fill="none" xmlns="http://www.w3.org/2000/svg">
<g clip-path="url(#clip0_37_1236)">
<rect x="22.1309" y="9.03998" width="7" height="13" rx="0.5" transform="rotate(-90 22.1309 9.03998)" fill="#383B40" stroke="#383B40"/>
<rect x="26.1331" y="33.0352" width="7" height="9" transform="rotate(-90 26.1331 33.0352)" fill="#383B40" stroke="#383B40"/>
<path d="M11.6253 53.9814C11.2593 53.7965 11.2593 53.2738 11.6253 53.0889L20.4076 48.6522C20.7402 48.4842 21.1331 48.7259 21.1331 49.0985V57.9718C21.1331 58.3444 20.7402 58.5861 20.4076 58.4181L11.6253 53.9814Z" fill="#383B40" stroke="#383B40"/>
<path d="M16.6253 29.9814C16.2593 29.7965 16.2593 29.2738 16.6253 29.0889L25.4076 24.6522C25.7402 24.4842 26.1331 24.7259 26.1331 25.0985V33.9718C26.1331 34.3444 25.7402 34.5861 25.4076 34.4181L16.6253 29.9814Z" fill="#383B40" stroke="#383B40"/>
<rect x="20.1331" y="57.0352" width="7" height="15" rx="0.5" transform="rotate(-90 20.1331 57.0352)" fill="#383B40" stroke="#383B40"/>
<mask id="path-6-inside-1_37_1236" fill="white">
<path d="M34.1533 25.5464C36.3198 25.5479 38.4648 25.9629 40.4658 26.7677C42.4668 27.5725 44.2846 28.7513 45.8155 30.2368C47.3464 31.7223 48.5603 33.4854 49.388 35.4254C50.2157 37.3655 50.6409 39.4445 50.6395 41.5437C50.638 43.643 50.2098 45.7214 49.3793 47.6603C48.5488 49.5991 47.3324 51.3605 45.7994 52.8438C44.2664 54.3271 42.4469 55.5033 40.4448 56.3053C38.4426 57.1072 36.297 57.5191 34.1306 57.5176L34.1362 49.5371C35.2212 49.5379 36.2956 49.3316 37.2982 48.93C38.3008 48.5284 39.212 47.9394 39.9797 47.1966C40.7473 46.4538 41.3565 45.5718 41.7724 44.6009C42.1882 43.6299 42.4027 42.5891 42.4034 41.5379C42.4042 40.4866 42.1912 39.4455 41.7767 38.474C41.3622 37.5025 40.7543 36.6196 39.9877 35.8757C39.2211 35.1318 38.3108 34.5415 37.3087 34.1385C36.3067 33.7355 35.2326 33.5276 34.1476 33.5269L34.1533 25.5464Z"/>
</mask>
<path d="M34.1533 25.5464C36.3198 25.5479 38.4648 25.9629 40.4658 26.7677C42.4668 27.5725 44.2846 28.7513 45.8155 30.2368C47.3464 31.7223 48.5603 33.4854 49.388 35.4254C50.2157 37.3655 50.6409 39.4445 50.6395 41.5437C50.638 43.643 50.2098 45.7214 49.3793 47.6603C48.5488 49.5991 47.3324 51.3605 45.7994 52.8438C44.2664 54.3271 42.4469 55.5033 40.4448 56.3053C38.4426 57.1072 36.297 57.5191 34.1306 57.5176L34.1362 49.5371C35.2212 49.5379 36.2956 49.3316 37.2982 48.93C38.3008 48.5284 39.212 47.9394 39.9797 47.1966C40.7473 46.4538 41.3565 45.5718 41.7724 44.6009C42.1882 43.6299 42.4027 42.5891 42.4034 41.5379C42.4042 40.4866 42.1912 39.4455 41.7767 38.474C41.3622 37.5025 40.7543 36.6196 39.9877 35.8757C39.2211 35.1318 38.3108 34.5415 37.3087 34.1385C36.3067 33.7355 35.2326 33.5276 34.1476 33.5269L34.1533 25.5464Z" fill="#383B40" stroke="#383B40" stroke-width="2" mask="url(#path-6-inside-1_37_1236)"/>
<mask id="path-7-inside-2_37_1236" fill="white">
<path d="M34.1533 1.54638C36.3198 1.54792 38.4648 1.96293 40.4658 2.76771C42.4668 3.57248 44.2846 4.75127 45.8155 6.23676C47.3464 7.72225 48.5603 9.48536 49.388 11.4254C50.2157 13.3655 50.6409 15.4445 50.6395 17.5437C50.638 19.643 50.2098 21.7214 49.3793 23.6603C48.5488 25.5991 47.3324 27.3605 45.7994 28.8438C44.2664 30.3271 42.4469 31.5033 40.4448 32.3053C38.4426 33.1072 36.297 33.5191 34.1306 33.5176L34.1362 25.5371C35.2212 25.5379 36.2956 25.3316 37.2982 24.93C38.3008 24.5284 39.212 23.9394 39.9797 23.1966C40.7473 22.4538 41.3565 21.5718 41.7724 20.6009C42.1882 19.6299 42.4027 18.5891 42.4034 17.5379C42.4042 16.4866 42.1912 15.4455 41.7767 14.474C41.3622 13.5025 40.7543 12.6196 39.9877 11.8757C39.2211 11.1318 38.3108 10.5415 37.3087 10.1385C36.3067 9.73546 35.2326 9.52763 34.1476 9.52686L34.1533 1.54638Z"/>
</mask>
<path d="M34.1533 1.54638C36.3198 1.54792 38.4648 1.96293 40.4658 2.76771C42.4668 3.57248 44.2846 4.75127 45.8155 6.23676C47.3464 7.72225 48.5603 9.48536 49.388 11.4254C50.2157 13.3655 50.6409 15.4445 50.6395 17.5437C50.638 19.643 50.2098 21.7214 49.3793 23.6603C48.5488 25.5991 47.3324 27.3605 45.7994 28.8438C44.2664 30.3271 42.4469 31.5033 40.4448 32.3053C38.4426 33.1072 36.297 33.5191 34.1306 33.5176L34.1362 25.5371C35.2212 25.5379 36.2956 25.3316 37.2982 24.93C38.3008 24.5284 39.212 23.9394 39.9797 23.1966C40.7473 22.4538 41.3565 21.5718 41.7724 20.6009C42.1882 19.6299 42.4027 18.5891 42.4034 17.5379C42.4042 16.4866 42.1912 15.4455 41.7767 14.474C41.3622 13.5025 40.7543 12.6196 39.9877 11.8757C39.2211 11.1318 38.3108 10.5415 37.3087 10.1385C36.3067 9.73546 35.2326 9.52763 34.1476 9.52686L34.1533 1.54638Z" fill="#383B40" stroke="#383B40" stroke-width="2" mask="url(#path-7-inside-2_37_1236)"/>
<rect x="13.1503" y="-0.376743" width="6.8231" height="18.278" rx="0.5" transform="rotate(11.3094 13.1503 -0.376743)" fill="#383B40" stroke="#383B40"/>
<rect x="8.9772" y="20.258" width="6.8231" height="18.278" rx="0.5" transform="rotate(11.3094 8.9772 20.258)" fill="#383B40" stroke="#383B40"/>
<rect x="4.71475" y="40.8951" width="6.8231" height="18.278" rx="0.5" transform="rotate(11.3094 4.71475 40.8951)" fill="#383B40" stroke="#383B40"/>
</g>
<defs>
<clipPath id="clip0_37_1236">
<rect width="51" height="59" fill="white"/>
</clipPath>
</defs>
</svg>
