<svg width="578" height="129" viewBox="0 0 578 129" fill="none" xmlns="http://www.w3.org/2000/svg">
<path d="M126.131 122V38.3856H147.838V122H126.131ZM123.88 18.6075C123.88 11.6933 129.507 5.90456 136.904 5.90456C144.462 5.90456 149.929 11.6933 149.929 18.6075C149.929 25.8434 144.462 31.4713 136.904 31.4713C129.507 31.4713 123.88 25.6826 123.88 18.6075ZM191.919 122C175.357 122 166.353 114.282 166.353 96.1117V56.8772H154.614V38.3856H166.353V21.5019L188.06 19.2507V38.3856H205.748V56.8772H188.06V94.9861C188.06 100.292 190.633 102.704 194.814 102.704H203.818V122H191.919ZM240.406 124.09C226.256 124.09 214.839 119.266 205.674 109.458L220.306 96.1117C226.417 103.026 232.849 106.403 239.924 106.403C247.32 106.403 251.501 102.704 251.501 97.7197C251.501 93.3781 249.411 90.9662 236.225 87.911C213.874 82.6047 210.498 72.4745 210.498 61.8619C210.498 47.2294 222.075 36.2952 241.692 36.2952C255.199 36.2952 264.204 39.6719 272.726 50.7669L256.968 62.8267C252.948 56.3948 247.803 53.8221 242.175 53.8221C236.225 53.8221 231.723 56.0732 231.723 61.2187C231.723 64.1131 233.009 66.6858 242.979 69.2586C267.259 75.5297 272.887 84.5343 272.887 97.0765C272.887 112.513 258.898 124.09 240.406 124.09ZM320.791 124.09C296.832 124.09 277.697 104.473 277.697 80.1928C277.697 55.9124 296.35 36.456 321.916 36.2952C337.192 36.1344 349.573 42.0839 356.648 51.8925L339.926 65.5603C336.066 59.7716 329.635 56.0732 322.238 56.0732C308.409 56.0732 299.405 67.1682 299.405 80.1928C299.405 93.2173 308.892 104.312 322.72 104.312C331.082 104.312 336.549 100.132 340.89 94.3429L356.648 108.011C348.769 118.141 337.192 124.09 320.791 124.09ZM397.573 124.09C374.579 124.09 356.248 104.634 356.248 80.5144C356.248 56.3948 374.579 36.6168 397.573 36.6168C412.044 36.6168 419.602 42.5663 424.104 51.5709V38.3856H445.651V122H424.587V108.332C420.084 117.819 412.527 124.09 397.573 124.09ZM377.955 80.3536C377.955 93.0565 387.282 104.473 401.11 104.473C415.421 104.473 424.587 93.5389 424.587 80.5144C424.587 67.4898 415.421 56.234 401.11 56.234C387.282 56.234 377.955 67.329 377.955 80.3536ZM458.114 122V4.61819H479.822V122H458.114ZM532.264 124.09C506.376 124.09 489.01 104.473 489.01 80.3536C489.01 56.234 507.18 36.2952 532.264 36.2952C557.348 36.2952 574.715 56.234 574.715 80.3536C574.715 82.7655 574.554 85.3383 574.071 88.0718H511.521C513.933 97.8804 521.33 104.795 532.264 104.795C541.59 104.795 548.826 99.9708 552.685 93.5389L569.569 106.242C562.816 116.694 548.826 124.09 532.264 124.09ZM511.521 71.8313H552.846C550.434 62.5051 542.555 54.9476 531.943 54.9476C521.651 54.9476 513.933 61.8619 511.521 71.8313Z" fill="#272A2F"/>
<g clip-path="url(#clip0_11_2945)">
<rect x="29.5572" y="1.30404" width="15.2105" height="32.3822" rx="1.08647" transform="rotate(13.0714 29.5572 1.30404)" fill="#272A2F" stroke="#383B40" stroke-width="2.17293"/>
<rect x="48.0889" y="19.6433" width="15.2105" height="28.2481" rx="1.08647" transform="rotate(-90 48.0889 19.6433)" fill="#272A2F" stroke="#383B40" stroke-width="2.17293"/>
<rect x="56.7854" y="71.7832" width="15.2105" height="19.5564" transform="rotate(-90 56.7854 71.7832)" fill="#272A2F" stroke="#383B40" stroke-width="2.17293"/>
<rect x="20.5819" y="39.9669" width="15.2105" height="43.0708" rx="1.08647" transform="rotate(13.0714 20.5819 39.9669)" fill="#272A2F" stroke="#383B40" stroke-width="2.17293"/>
<rect x="9.09116" y="89.4677" width="15.2105" height="34.4265" rx="1.08647" transform="rotate(13.0714 9.09116 89.4677)" fill="#272A2F" stroke="#383B40" stroke-width="2.17293"/>
<path d="M23.0884 117.298C22.293 116.896 22.293 115.76 23.0884 115.359L42.1716 105.718C42.8943 105.353 43.748 105.878 43.748 106.688V125.969C43.748 126.778 42.8943 127.304 42.1716 126.939L23.0884 117.298Z" fill="#272A2F" stroke="#383B40" stroke-width="2.17293"/>
<path d="M36.126 65.1476C35.3306 64.7458 35.3305 63.61 36.126 63.2082L55.2092 53.5676C55.9319 53.2026 56.7856 53.7278 56.7856 54.5374V73.8184C56.7856 74.628 55.9319 75.1532 55.2092 74.7882L36.126 65.1476Z" fill="#272A2F" stroke="#383B40" stroke-width="2.17293"/>
<rect x="43.7478" y="123.934" width="15.2105" height="32.594" rx="1.08647" transform="rotate(-90 43.7478 123.934)" fill="#272A2F" stroke="#383B40" stroke-width="2.17293"/>
<mask id="path-10-inside-1_11_2945" fill="white">
<path d="M74.2131 55.5106C78.9207 55.5139 83.5816 56.4157 87.9296 58.1644C92.2777 59.9132 96.2277 62.4746 99.5542 65.7025C102.881 68.9303 105.519 72.7614 107.317 76.977C109.116 81.1927 110.04 85.7102 110.036 90.2717C110.033 94.8333 109.103 99.3495 107.298 103.563C105.494 107.776 102.85 111.603 99.5192 114.826C96.1881 118.049 92.2345 120.605 87.8839 122.348C83.5334 124.09 78.8713 124.985 74.1636 124.982L74.176 107.641C76.5334 107.643 78.8681 107.194 81.0467 106.322C83.2253 105.449 85.2052 104.169 86.8733 102.555C88.5414 100.941 89.8651 99.0244 90.7688 96.9147C91.6724 94.8049 92.1384 92.5433 92.14 90.259C92.1416 87.9747 91.6789 85.7125 90.7782 83.6014C89.8776 81.4904 88.5566 79.5718 86.8908 77.9554C85.225 76.339 83.247 75.0563 81.0696 74.1806C78.8922 73.3049 76.5582 72.8533 74.2007 72.8516L74.2131 55.5106Z"/>
</mask>
<path d="M74.2131 55.5106C78.9207 55.5139 83.5816 56.4157 87.9296 58.1644C92.2777 59.9132 96.2277 62.4746 99.5542 65.7025C102.881 68.9303 105.519 72.7614 107.317 76.977C109.116 81.1927 110.04 85.7102 110.036 90.2717C110.033 94.8333 109.103 99.3495 107.298 103.563C105.494 107.776 102.85 111.603 99.5192 114.826C96.1881 118.049 92.2345 120.605 87.8839 122.348C83.5334 124.09 78.8713 124.985 74.1636 124.982L74.176 107.641C76.5334 107.643 78.8681 107.194 81.0467 106.322C83.2253 105.449 85.2052 104.169 86.8733 102.555C88.5414 100.941 89.8651 99.0244 90.7688 96.9147C91.6724 94.8049 92.1384 92.5433 92.14 90.259C92.1416 87.9747 91.6789 85.7125 90.7782 83.6014C89.8776 81.4904 88.5566 79.5718 86.8908 77.9554C85.225 76.339 83.247 75.0563 81.0696 74.1806C78.8922 73.3049 76.5582 72.8533 74.2007 72.8516L74.2131 55.5106Z" fill="#272A2F" stroke="#383B40" stroke-width="4.34586" mask="url(#path-10-inside-1_11_2945)"/>
<mask id="path-11-inside-2_11_2945" fill="white">
<path d="M74.2131 3.36019C78.9207 3.36354 83.5816 4.26533 87.9296 6.01405C92.2777 7.76277 96.2277 10.3242 99.5542 13.5521C102.881 16.7799 105.519 20.6111 107.317 24.8267C109.116 29.0423 110.04 33.5598 110.036 38.1214C110.033 42.6829 109.103 47.1991 107.298 51.4122C105.494 55.6252 102.85 59.4526 99.5192 62.6757C96.1881 65.8988 92.2345 68.4546 87.8839 70.1972C83.5334 71.9397 78.8713 72.8348 74.1636 72.8315L74.176 55.4904C76.5334 55.4921 78.8681 55.0439 81.0467 54.1712C83.2253 53.2986 85.2052 52.0188 86.8733 50.4047C88.5414 48.7907 89.8651 46.874 90.7688 44.7643C91.6724 42.6545 92.1384 40.3929 92.14 38.1086C92.1416 35.8243 91.6789 33.5621 90.7782 31.451C89.8776 29.34 88.5566 27.4215 86.8908 25.805C85.225 24.1886 83.247 22.9059 81.0696 22.0302C78.8922 21.1545 76.5582 20.7029 74.2007 20.7012L74.2131 3.36019Z"/>
</mask>
<path d="M74.2131 3.36019C78.9207 3.36354 83.5816 4.26533 87.9296 6.01405C92.2777 7.76277 96.2277 10.3242 99.5542 13.5521C102.881 16.7799 105.519 20.6111 107.317 24.8267C109.116 29.0423 110.04 33.5598 110.036 38.1214C110.033 42.6829 109.103 47.1991 107.298 51.4122C105.494 55.6252 102.85 59.4526 99.5192 62.6757C96.1881 65.8988 92.2345 68.4546 87.8839 70.1972C83.5334 71.9397 78.8713 72.8348 74.1636 72.8315L74.176 55.4904C76.5334 55.4921 78.8681 55.0439 81.0467 54.1712C83.2253 53.2986 85.2052 52.0188 86.8733 50.4047C88.5414 48.7907 89.8651 46.874 90.7688 44.7643C91.6724 42.6545 92.1384 40.3929 92.14 38.1086C92.1416 35.8243 91.6789 33.5621 90.7782 31.451C89.8776 29.34 88.5566 27.4215 86.8908 25.805C85.225 24.1886 83.247 22.9059 81.0696 22.0302C78.8922 21.1545 76.5582 20.7029 74.2007 20.7012L74.2131 3.36019Z" fill="#272A2F" stroke="#383B40" stroke-width="4.34586" mask="url(#path-11-inside-2_11_2945)"/>
</g>
<defs>
<clipPath id="clip0_11_2945">
<rect width="110.82" height="128.203" fill="white"/>
</clipPath>
</defs>
</svg>
